<svg xmlns="http://www.w3.org/2000/svg" width="160" height="32" aria-labelledby="title desc" role="img" shape-rendering="crispEdges" viewBox="0 0 160 32"><title id="title">Owl blink pixel tileset</title><desc id="desc">A five-frame 32 by 32 pixel owl idle and blink animation strip.</desc><defs><style>.outline{fill:#2f2a24}.body{fill:#70685d}.body-dark{fill:#585147}.wing{fill:#5f584f}.face{fill:#b8afa2}.face-dark{fill:#958c7f}.eye-light{fill:#f4ead5}.eye-dark{fill:#2f2a24}.beak{fill:#bf9a53}.claw{fill:#d8d1c4}.contact{fill:#2f2a24}</style><symbol id="owl-open" viewBox="0 0 32 32"><path d="M7 0h6v2h6V0h6v3h2v3h2v19h-2v4h-5v2H10v-2H5v-4H3V6h2V3h2V0z" class="outline"/><path d="M8 5h16v2h2v17h-2v3h-5v2h-6v-2H8v-3H6V7h2V5z" class="body"/><path d="M4 15h6v11H8v-1H5v-3H4v-7z" class="wing"/><path d="M22 15h6v7h-1v3h-3v1h-2V15z" class="wing"/><rect width="8" height="11" x="7" y="7" class="face"/><rect width="8" height="11" x="17" y="7" class="face"/><rect width="14" height="5" x="9" y="19" class="face-dark"/><rect width="5" height="5" x="8" y="9" class="eye-light"/><rect width="5" height="5" x="19" y="9" class="eye-light"/><rect width="2" height="3" x="10" y="10" class="eye-dark"/><rect width="2" height="3" x="20" y="10" class="eye-dark"/><rect width="2" height="2" x="15" y="15" class="beak"/><rect width="4" height="2" x="14" y="17" class="beak"/><rect width="2" height="3" x="11" y="27" class="contact"/><rect width="2" height="3" x="19" y="27" class="contact"/><rect width="4" height="1" x="10" y="30" class="claw"/><rect width="4" height="1" x="18" y="30" class="claw"/></symbol><symbol id="owl-breathe" viewBox="0 0 32 32"><use href="#owl-open"/><rect width="1" height="6" x="3" y="16" class="body-dark"/><rect width="6" height="10" x="4" y="16" class="wing"/><rect width="1" height="6" x="28" y="16" class="body-dark"/><rect width="6" height="10" x="22" y="16" class="wing"/><rect width="10" height="2" x="11" y="24" class="body"/><rect width="12" height="1" x="10" y="25" class="body-dark"/><rect width="5" height="1" x="10" y="30" class="claw"/><rect width="5" height="1" x="17" y="30" class="claw"/></symbol><symbol id="owl-half" viewBox="0 0 32 32"><use href="#owl-breathe"/><rect width="5" height="5" x="8" y="9" class="face"/><rect width="5" height="5" x="19" y="9" class="face"/><rect width="5" height="2" x="8" y="11" class="eye-dark"/><rect width="5" height="2" x="19" y="11" class="eye-dark"/></symbol><symbol id="owl-closed" viewBox="0 0 32 32"><use href="#owl-breathe"/><rect width="5" height="5" x="8" y="9" class="face"/><rect width="5" height="5" x="19" y="9" class="face"/><rect width="5" height="1" x="8" y="12" class="eye-dark"/><rect width="5" height="1" x="19" y="12" class="eye-dark"/></symbol><symbol id="owl-settle" viewBox="0 0 32 32"><use href="#owl-open"/><rect width="2" height="3" x="6" y="1" class="body-dark"/><rect width="2" height="3" x="24" y="1" class="body-dark"/><rect width="1" height="2" x="4" y="21" class="body-dark"/><rect width="1" height="2" x="27" y="21" class="body-dark"/><rect width="10" height="1" x="11" y="20" class="face-dark"/></symbol></defs><use width="32" height="32" x="0" y="0" href="#owl-open"/><use width="32" height="32" x="32" y="0" href="#owl-breathe"/><use width="32" height="32" x="64" y="0" href="#owl-half"/><use width="32" height="32" x="96" y="0" href="#owl-closed"/><use width="32" height="32" x="128" y="0" href="#owl-settle"/></svg>